<svg viewBox="0 0 32 32" id="weather-clear-night--32" xmlns="http://www.w3.org/2000/svg" width="100%" height="100%"><path d="M21.86 5.61C19.94 4.54 17.75 4 15.5 4l-.55 1.81c3.8 2.43 5 7.39 2.71 11.27-2.28 3.88-7.24 5.33-11.34 3.34l-1.33 1.35c1.06 1.9 2.63 3.49 4.61 4.63 5.88 3.3 13.4 1.33 16.76-4.4 3.36-5.74 1.36-13-4.5-16.38m-1.01 1.7c4.91 2.8 6.58 8.9 3.77 13.7-2.8 4.79-9.1 6.43-14 3.68-1.66-.95-2.97-2.27-3.85-3.86l-1.33 1.35c5 2.44 11.16.65 13.97-4.13 2.82-4.79 1.34-10.9-3.35-13.9l-.55 1.81c1.9 0 3.75.46 5.36 1.35" fill="#649dff"></path></svg>