<svg fill="#649DFF" id="weather-light-rain-night--square" viewBox="0 0 32 32" style="enable-background:new 0 0 32 32" xmlns="http://www.w3.org/2000/svg" width="100%" height="100%"><g id="efPage-1"><g id="ef_x33_2x32-timetable-fill" transform="translate(-316 -320)"><g id="efnight-rain" transform="translate(314 320)"><g id="efmoon-rain" transform="translate(2)"><polygon id="efShape_1_" class="efst0" points="6.5,25 4.3,28.6 6.1,29.6 8.2,26"></polygon><polygon id="efShape_2_" class="efst0" points="11.4,26.6 9.3,30.2 11.1,31.2 13.2,27.7"></polygon><polygon id="efShape_3_" class="efst0" points="23,26.7 20.9,30.2 22.7,31.2 24.7,27.6"></polygon><polygon id="efShape_4_" class="efst0" points="18.6,25 16.5,28.6 18.3,29.6 20.3,26"></polygon><path class="efst0" d="M26.1 12.7c1.8-3.8.4-8.5-3.4-10.6-1.3-.7-2.8-1.1-4.2-1.1L18 2.8c2.1 1.4 2.9 4 2 6.2-1.1-.7-2.4-1.2-3.8-1.2-2.4 0-4.8 1.3-6 3.2l1.7 1c.8-1.4 2.6-2.3 4.3-2.3 2.3 0 4.3 1.6 4.8 4l.3 1.2 1.1-.5c.5-.2.9-.3 1.5-.3 2.2 0 3.9 1.8 3.9 3.9 0 2.2-1.8 3.9-3.9 3.9h-16C5.7 21.9 4 20.1 4 18c0-2.2 1.8-3.9 3.9-3.9.6 0 1.3.3 1.9.7.2.1.3.2.5.3.1.1.3.3.4.3l1.2-1.6s-.3-.2-.4-.3c-.2-.2-.4-.3-.6-.4-.9-.4-1.8-.8-2.9-.8-3.3 0-6 2.7-6 5.9 0 3.3 2.7 5.9 5.9 5.9h15.9c3.3 0 5.9-2.7 5.9-5.9.1-2.5-1.4-4.6-3.6-5.5zm-3.5-.3c-.3-.7-.7-1.3-1.1-1.9 1.1-2.2 1-4.8-.1-6.8.1.1.3.1.4.2 3 1.6 4 5.5 2.3 8.4h-.2c-.5 0-.9 0-1.3.1z"></path></g></g></g></g></svg>