<svg viewBox="0 0 32 32" id="weather-partly-cloudy-night--32" xmlns="http://www.w3.org/2000/svg" width="100%" height="100%"><g fill="#649dff"><path d="M11.86 12.71c-.01-.01-.28-.22-.38-.3-.2-.15-.39-.29-.6-.43-.87-.55-1.81-.9-2.88-.97-3.33 0-5.99 2.66-5.99 5.92s2.66 5.92 5.92 5.92h15.93c3.26 0 5.92-2.66 5.92-5.92s-2.66-5.92-5.92-5.92c-.83 0-1.57.15-2.29.48l.41.91.97-.24c-.79-3.23-3.51-5.52-6.78-5.52-2.38 0-4.78 1.26-6 3.24l1.71 1.05c.84-1.37 2.59-2.29 4.29-2.29 2.32 0 4.26 1.63 4.84 4l.29 1.17 1.1-.5c.45-.21.91-.3 1.47-.3 2.16 0 3.92 1.77 3.92 3.92 0 2.16-1.77 3.92-3.92 3.92H7.94c-2.16 0-3.92-1.77-3.92-3.92 0-2.16 1.77-3.92 3.92-3.92.64.04 1.27.28 1.87.66.15.1.3.2.46.33.09.07.35.28.38.3l1.23-1.58"></path><path d="M25.32 12.34c2.28-3.93.92-9-3.03-11.22A8.816 8.816 0 0 0 18.04 0l-.55 1.84c2.29 1.5 3.05 4.57 1.67 6.96l1.73 1c1.91-3.31.87-7.56-2.31-9.63l-.55 1.84c1.09 0 2.3.31 3.27.86 2.98 1.66 4 5.51 2.29 8.48l1.73 1"></path></g></svg>