<svg viewBox="0 0 32 32" id="weather-rain--32" xmlns="http://www.w3.org/2000/svg" width="100%" height="100%"><path d="M11.86 13.07c-.01-.01-.28-.22-.38-.3-.2-.15-.39-.29-.6-.43-.87-.55-1.81-.9-2.88-.97-3.33 0-5.99 2.66-5.99 5.92s2.66 5.92 5.92 5.92h15.93c3.26 0 5.92-2.66 5.92-5.92s-2.66-5.92-5.92-5.92c-.83 0-1.57.15-2.29.48l.41.91.97-.24C22.16 9.29 19.44 7 16.17 7c-2.38 0-4.78 1.26-6 3.24l1.71 1.05C12.72 9.92 14.47 9 16.17 9c2.32 0 4.26 1.63 4.84 4l.29 1.17 1.1-.5c.45-.21.91-.3 1.47-.3 2.16 0 3.92 1.77 3.92 3.92 0 2.16-1.77 3.92-3.92 3.92H7.94c-2.16 0-3.92-1.77-3.92-3.92 0-2.16 1.77-3.92 3.92-3.92.64.04 1.27.28 1.87.66.15.1.3.2.46.33.09.07.35.28.38.3l1.23-1.58m-5.96 11l-2.1 3.6 1.73 1 2.1-3.6-1.73-1m4.98 1.66l-2.1 3.6 1.73 1 2.1-3.6-1.73-1m12.1.01l-2.05 3.6 1.74.99 2.05-3.6-1.74-.99m-4.98-1.66l-2.05 3.6 1.74.99 2.05-3.6-1.74-.99" fill="#649dff"></path></svg>