<svg viewBox="0 0 32 32" id="weather-snow--32" xmlns="http://www.w3.org/2000/svg" width="100%" height="100%"><g fill="#649dff"><g transform="translate(6 24)"><circle cx="1.57" cy="1.41" r="1.25"></circle><circle cx="5.39" cy="4.96" r="1.25"></circle><circle cx="13.1" cy="4.96" r="1.25"></circle><circle cx="9.26" cy="1.41" r="1.25"></circle><circle cx="16.96" cy="1.41" r="1.25"></circle></g><path d="M11.93 13a14.2 14.2 0 0 0-.39-.3c-.2-.15-.4-.29-.61-.42a6.06 6.06 0 0 0-2.9-.96c-3.35 0-6 2.62-6 5.84C2.03 20.38 4.71 23 8 23h16.1c3.29 0 5.97-2.62 5.97-5.84 0-3.22-2.68-5.84-5.97-5.84-.84 0-1.58.15-2.31.47l.41.89.97-.23C22.37 9.26 19.64 7 16.34 7c-2.4 0-4.82 1.25-6 3.2l1.71 1.02c.85-1.35 2.61-2.26 4.34-2.26 2.34 0 4.3 1.62 4.89 3.95l.29 1.15 1.1-.49c.46-.2.92-.29 1.48-.29 2.18 0 3.97 1.75 3.97 3.88 0 2.14-1.78 3.88-3.97 3.88H8.05c-2.18 0-3.97-1.75-3.97-3.88 0-2.14 1.78-3.88 3.97-3.88.65.04 1.28.27 1.89.65.16.1.31.2.47.32.09.07.35.27.38.29l1.23-1.55"></path></g></svg>