<svg viewBox="0 0 32 32" id="weather-clear--32" xmlns="http://www.w3.org/2000/svg" width="100%" height="100%"><g fill="#ffb64e"><path d="M16.1 24.2c4.56 0 8.25-3.7 8.25-8.25S20.66 7.7 16.1 7.7c-4.56 0-8.25 3.7-8.25 8.25s3.69 8.25 8.25 8.25m0-1.96c-3.45 0-6.25-2.81-6.25-6.29s2.8-6.29 6.25-6.29 6.25 2.81 6.25 6.29-2.8 6.29-6.25 6.29M15.33 3.06v2.76h2V3.06zM15.33 26.2V29h2v-2.8zM3.33 17.28h2.7v-2h-2.7zM25.97 17.28h2.71v-2h-2.71zM7.83 25.94l2.06-2.1-1.43-1.4-2.06 2.1zM23.76 9.67l2.05-2.1-1.42-1.4-2.06 2.1zM25.76 24.54l-2.06-2.1-1.43 1.4 2.06 2.1zM9.84 8.27l-2.06-2.1-1.43 1.4 2.06 2.1z"></path></g></svg>