<svg viewBox="0 0 32 32" id="weather-light-rain--32" xmlns="http://www.w3.org/2000/svg" width="100%" height="100%"><g fill="none"><g fill="#ffb64e"><path d="M15.75 9.24c.35-1.82 2-3.2 3.89-3.2 2.21 0 3.98 1.77 3.98 3.98 0 .9-.32 1.79-.88 2.54l1.6 1.2c.82-1.09 1.28-2.39 1.28-3.74a5.97 5.97 0 0 0-5.98-5.98c-2.85 0-5.33 2.06-5.86 4.82l1.96.37M18.75.52v2.17h2V.52zM26.85 11.27H29v-2h-2.15zM25.75 5.55l1.42-1.47-1.44-1.38-1.4 1.44zM15.1 4.21l-1.41-1.46-1.44 1.39 1.4 1.46z"></path></g><path d="M11.68 13.75c-.01-.01-.27-.22-.38-.3-.2-.15-.39-.29-.59-.42-.85-.54-1.78-.89-2.83-.96-3.27 0-5.89 2.61-5.89 5.82 0 3.21 2.61 5.82 5.82 5.82h15.6c3.21 0 5.82-2.61 5.82-5.82 0-3.21-2.61-5.82-5.82-5.82-.81 0-1.55.15-2.26.47l.41.91.97-.24c-.78-3.17-3.45-5.42-6.66-5.42-2.34 0-4.7 1.24-5.89 3.19l1.71 1.05c.82-1.33 2.52-2.23 4.18-2.23 2.26 0 4.15 1.59 4.72 3.9l.29 1.17 1.1-.5c.44-.2.89-.29 1.43-.29 2.1 0 3.82 1.72 3.82 3.82 0 2.1-1.72 3.82-3.82 3.82H7.81c-2.1 0-3.82-1.72-3.82-3.82 0-2.1 1.72-3.82 3.82-3.82.62.04 1.23.27 1.82.64.15.1.29.2.45.32.09.07.34.27.37.29l1.23-1.58M6.36 24.54L4.3 28.06l1.73 1 2.06-3.52-1.73-1m4.88 1.63l-2.06 3.52 1.73 1 2.06-3.52-1.73-1m11.32.01l-2 3.52 1.74.99 2-3.52-1.74-.99m-4.33-1.63l-2 3.52 1.74.99 2-3.52-1.74-.99" fill="#649dff"></path></g></svg>